<?xml version="1.0" encoding="UTF-8" standalone="no"?>
<!-- Generator: Adobe Illustrator 15.0.2, SVG Export Plug-In . SVG Version: 6.00 Build 0)  -->

<svg
   xmlns:dc="http://purl.org/dc/elements/1.1/"
   xmlns:cc="http://creativecommons.org/ns#"
   xmlns:rdf="http://www.w3.org/1999/02/22-rdf-syntax-ns#"
   xmlns:svg="http://www.w3.org/2000/svg"
   xmlns="http://www.w3.org/2000/svg"
   xmlns:sodipodi="http://sodipodi.sourceforge.net/DTD/sodipodi-0.dtd"
   xmlns:inkscape="http://www.inkscape.org/namespaces/inkscape"
   version="1.1"
   id="Layer_1"
   x="0px"
   y="0px"
   width="600"
   height="600.00415"
   viewBox="0 0 600 600.00415"
   enable-background="new 0 0 144 144"
   xml:space="preserve"
   inkscape:version="0.48.2 r9819"
   sodipodi:docname="km-outline-medium.svg"><metadata
   id="metadata47"><rdf:RDF><cc:Work
       rdf:about=""><dc:format>image/svg+xml</dc:format><dc:type
         rdf:resource="http://purl.org/dc/dcmitype/StillImage" /><dc:title></dc:title></cc:Work></rdf:RDF></metadata><defs
   id="defs45" /><sodipodi:namedview
   pagecolor="#ffffff"
   bordercolor="#666666"
   borderopacity="1"
   objecttolerance="10"
   gridtolerance="10"
   guidetolerance="10"
   inkscape:pageopacity="0"
   inkscape:pageshadow="2"
   inkscape:window-width="1440"
   inkscape:window-height="768"
   id="namedview43"
   showgrid="false"
   fit-margin-top="0"
   fit-margin-left="0"
   fit-margin-right="0"
   fit-margin-bottom="0"
   inkscape:zoom="0.28971736"
   inkscape:cx="72"
   inkscape:cy="72.000005"
   inkscape:window-x="0"
   inkscape:window-y="0"
   inkscape:window-maximized="1"
   inkscape:current-layer="Layer_1" />
<g
   id="g3"
   transform="matrix(4.1666667,0,0,4.1666667,5.8140918e-7,0.00416667)">
	<g
   id="g5">
		<path
   d="M 11.01,18.954 V 11.09 h 2.122 v 3.572 l 2.487,-3.572 h 2.498 l -2.906,3.835 3.158,4.028 h -2.675 l -2.562,-3.529 v 3.529 H 11.01 z"
   id="path7"
   inkscape:connector-curvature="0" />
		<path
   d="M 20.609,18.954 V 11.09 h 2.068 l 2.97,4.044 c 0.057,0.083 0.151,0.248 0.282,0.497 0.13,0.249 0.274,0.545 0.432,0.889 -0.043,-0.326 -0.074,-0.616 -0.094,-0.87 -0.02,-0.254 -0.029,-0.48 -0.029,-0.677 V 11.09 h 2.057 v 7.863 h -2.057 l -2.97,-4.061 c -0.061,-0.083 -0.157,-0.248 -0.288,-0.497 -0.13,-0.249 -0.273,-0.542 -0.427,-0.878 0.043,0.33 0.074,0.621 0.094,0.875 0.02,0.254 0.03,0.48 0.03,0.677 v 3.883 h -2.068 z"
   id="path9"
   inkscape:connector-curvature="0" />
		<path
   d="m 39.563,15.038 c 0,0.566 -0.104,1.096 -0.312,1.59 -0.208,0.494 -0.51,0.937 -0.908,1.327 -0.401,0.387 -0.859,0.685 -1.375,0.894 -0.516,0.21 -1.051,0.314 -1.606,0.314 -0.562,0 -1.1,-0.104 -1.614,-0.314 -0.514,-0.209 -0.966,-0.507 -1.356,-0.894 -0.405,-0.39 -0.712,-0.834 -0.921,-1.332 -0.21,-0.498 -0.314,-1.026 -0.314,-1.584 0,-0.562 0.104,-1.091 0.314,-1.587 0.209,-0.496 0.516,-0.939 0.921,-1.33 0.39,-0.387 0.842,-0.685 1.356,-0.894 0.514,-0.21 1.052,-0.314 1.614,-0.314 0.559,0 1.097,0.104 1.614,0.314 0.518,0.209 0.973,0.507 1.367,0.894 0.394,0.387 0.695,0.829 0.905,1.327 0.21,0.497 0.315,1.027 0.315,1.589 z m -4.2,2.31 c 0.594,0 1.086,-0.218 1.474,-0.655 0.389,-0.437 0.583,-0.988 0.583,-1.654 0,-0.659 -0.197,-1.208 -0.591,-1.649 -0.394,-0.441 -0.883,-0.661 -1.466,-0.661 -0.594,0 -1.086,0.219 -1.474,0.658 -0.389,0.438 -0.583,0.989 -0.583,1.651 0,0.673 0.191,1.227 0.575,1.66 0.384,0.433 0.877,0.65 1.482,0.65 z"
   id="path11"
   inkscape:connector-curvature="0" />
		<path
   d="m 44.885,12.917 0.011,0.021 c 0.125,0.236 0.209,0.444 0.252,0.623 0.04,-0.165 0.12,-0.36 0.242,-0.585 0.014,-0.025 0.025,-0.045 0.032,-0.059 l 0.945,-1.826 h 2.541 l -2.626,3.781 2.906,4.082 h -2.433 l -1.332,-2.331 c -0.061,-0.104 -0.115,-0.21 -0.161,-0.32 -0.046,-0.109 -0.084,-0.219 -0.113,-0.33 -0.032,0.125 -0.07,0.242 -0.113,0.349 -0.043,0.107 -0.093,0.208 -0.15,0.301 l -1.343,2.331 H 41.11 l 2.917,-4.125 -2.637,-3.738 h 2.551 l 0.944,1.826 z"
   id="path13"
   inkscape:connector-curvature="0" />
		<path
   d="m 58.277,15.07 c -0.014,-0.061 -0.038,-0.229 -0.07,-0.505 -0.029,-0.229 -0.054,-0.419 -0.075,-0.569 -0.032,0.179 -0.078,0.358 -0.137,0.537 -0.06,0.179 -0.134,0.362 -0.223,0.548 l -2.057,4.189 -2.057,-4.275 c -0.086,-0.175 -0.16,-0.346 -0.223,-0.51 -0.063,-0.165 -0.117,-0.328 -0.164,-0.489 -0.003,0.165 -0.017,0.337 -0.041,0.519 -0.023,0.181 -0.058,0.37 -0.104,0.566 l -0.843,3.873 h -1.176 l 1.858,-8.196 2.32,4.963 c 0.036,0.079 0.09,0.209 0.164,0.392 0.073,0.183 0.162,0.408 0.266,0.677 0.075,-0.226 0.193,-0.512 0.354,-0.859 0.043,-0.093 0.075,-0.165 0.097,-0.215 l 2.267,-4.958 1.901,8.196 h -1.187 l -0.87,-3.884 z"
   id="path15"
   inkscape:connector-curvature="0" />
		<path
   d="M 68.517,18.954 67.625,16.929 H 64.51 l -0.913,2.025 h -1.343 l 3.808,-8.175 3.803,8.175 h -1.348 z m -3.535,-3.089 h 2.191 l -0.806,-1.794 c -0.046,-0.115 -0.095,-0.246 -0.145,-0.395 -0.05,-0.149 -0.1,-0.314 -0.15,-0.497 -0.043,0.172 -0.089,0.332 -0.137,0.48 -0.049,0.149 -0.098,0.286 -0.148,0.411 l -0.805,1.795 z"
   id="path17"
   inkscape:connector-curvature="0" />
		<path
   d="M 72.177,18.954 V 11.09 h 1.278 v 3.255 l 2.826,-3.255 h 1.563 l -3.115,3.497 3.486,4.367 h -1.649 l -3.11,-4.018 v 4.018 h -1.279 z"
   id="path19"
   inkscape:connector-curvature="0" />
		<path
   d="M 80.549,18.954 V 11.09 h 4.388 v 1.085 h -3.11 v 1.971 h 3.11 v 1.123 h -3.11 v 2.541 h 3.11 v 1.144 h -4.388 z"
   id="path21"
   inkscape:connector-curvature="0" />
		<path
   d="m 89.195,15.436 v 3.518 H 87.998 V 11.09 h 1.783 c 0.522,0 0.928,0.034 1.217,0.102 0.287,0.068 0.533,0.181 0.738,0.338 0.243,0.19 0.432,0.435 0.563,0.736 0.131,0.301 0.198,0.63 0.198,0.988 0,0.63 -0.152,1.124 -0.456,1.479 -0.304,0.356 -0.754,0.57 -1.349,0.642 l 2.707,3.577 h -1.444 l -2.616,-3.518 h -0.144 z m 0.08,-0.994 h 0.231 c 0.677,0 1.126,-0.079 1.349,-0.236 0.222,-0.158 0.332,-0.437 0.332,-0.838 0,-0.433 -0.119,-0.739 -0.357,-0.916 -0.237,-0.178 -0.679,-0.266 -1.323,-0.266 h -0.231 v 2.256 z"
   id="path23"
   inkscape:connector-curvature="0" />
		<path
   d="m 95.158,17.38 1.021,-0.473 c 0.096,0.351 0.273,0.619 0.531,0.803 0.258,0.185 0.588,0.277 0.988,0.277 0.379,0 0.682,-0.105 0.904,-0.317 0.225,-0.211 0.336,-0.494 0.336,-0.849 0,-0.462 -0.383,-0.874 -1.148,-1.235 -0.107,-0.054 -0.19,-0.093 -0.248,-0.118 -0.866,-0.422 -1.443,-0.805 -1.732,-1.146 -0.287,-0.342 -0.432,-0.76 -0.432,-1.254 0,-0.641 0.217,-1.16 0.652,-1.558 0.435,-0.398 1.006,-0.596 1.711,-0.596 0.58,0 1.065,0.112 1.455,0.336 0.391,0.224 0.661,0.545 0.812,0.964 l -0.999,0.516 c -0.158,-0.247 -0.33,-0.428 -0.518,-0.542 -0.189,-0.115 -0.404,-0.172 -0.648,-0.172 -0.344,0 -0.616,0.089 -0.818,0.269 -0.203,0.179 -0.304,0.419 -0.304,0.72 0,0.473 0.444,0.913 1.332,1.321 0.067,0.032 0.122,0.057 0.161,0.075 0.777,0.358 1.311,0.708 1.601,1.05 0.29,0.342 0.435,0.769 0.435,1.281 0,0.745 -0.234,1.336 -0.703,1.775 -0.469,0.439 -1.104,0.658 -1.901,0.658 -0.669,0 -1.218,-0.154 -1.646,-0.462 -0.429,-0.31 -0.709,-0.75 -0.842,-1.323 z"
   id="path25"
   inkscape:connector-curvature="0" />
		<path
   d="m 103.049,18.357 c 0,-0.197 0.068,-0.365 0.204,-0.505 0.136,-0.14 0.303,-0.209 0.499,-0.209 0.197,0 0.363,0.07 0.5,0.209 0.137,0.139 0.204,0.308 0.204,0.505 0,0.193 -0.067,0.357 -0.204,0.491 -0.137,0.135 -0.303,0.202 -0.5,0.202 -0.196,0 -0.363,-0.067 -0.499,-0.202 -0.136,-0.133 -0.204,-0.297 -0.204,-0.491 z"
   id="path27"
   inkscape:connector-curvature="0" />
		<path
   d="m 115.356,15.038 c 0,0.559 -0.104,1.087 -0.313,1.584 -0.211,0.498 -0.516,0.942 -0.916,1.332 -0.405,0.39 -0.861,0.689 -1.37,0.897 -0.509,0.208 -1.042,0.312 -1.601,0.312 -0.566,0 -1.105,-0.104 -1.619,-0.314 -0.514,-0.209 -0.968,-0.507 -1.361,-0.894 -0.401,-0.39 -0.706,-0.833 -0.914,-1.327 -0.207,-0.494 -0.311,-1.024 -0.311,-1.59 0,-0.562 0.104,-1.092 0.311,-1.59 0.208,-0.498 0.513,-0.943 0.914,-1.337 0.4,-0.39 0.855,-0.688 1.363,-0.892 0.509,-0.204 1.048,-0.306 1.617,-0.306 0.566,0 1.102,0.102 1.609,0.306 0.506,0.204 0.96,0.501 1.361,0.892 0.4,0.397 0.705,0.846 0.916,1.345 0.21,0.5 0.314,1.027 0.314,1.582 z m -1.332,0 c 0,-0.397 -0.073,-0.775 -0.218,-1.133 -0.145,-0.358 -0.354,-0.677 -0.625,-0.956 -0.266,-0.276 -0.572,-0.488 -0.922,-0.636 -0.35,-0.149 -0.717,-0.223 -1.104,-0.223 -0.387,0 -0.754,0.073 -1.104,0.22 -0.35,0.147 -0.66,0.36 -0.932,0.639 -0.272,0.276 -0.48,0.593 -0.623,0.951 -0.144,0.358 -0.215,0.738 -0.215,1.139 0,0.397 0.071,0.773 0.215,1.128 0.143,0.354 0.351,0.671 0.623,0.951 0.271,0.279 0.582,0.492 0.929,0.639 0.347,0.147 0.716,0.22 1.106,0.22 0.383,0 0.748,-0.073 1.094,-0.22 0.345,-0.147 0.655,-0.36 0.932,-0.639 0.271,-0.279 0.48,-0.597 0.625,-0.954 0.146,-0.357 0.219,-0.732 0.219,-1.126 z"
   id="path29"
   inkscape:connector-curvature="0" />
		<path
   d="m 119.483,15.436 v 3.518 h -1.198 V 11.09 h 1.783 c 0.523,0 0.929,0.034 1.217,0.102 0.289,0.068 0.535,0.181 0.738,0.338 0.244,0.19 0.432,0.435 0.564,0.736 0.132,0.301 0.199,0.63 0.199,0.988 0,0.63 -0.152,1.124 -0.457,1.479 -0.305,0.356 -0.754,0.57 -1.348,0.642 l 2.707,3.577 h -1.445 l -2.615,-3.518 h -0.145 z m 0.081,-0.994 h 0.23 c 0.677,0 1.126,-0.079 1.348,-0.236 0.223,-0.158 0.334,-0.437 0.334,-0.838 0,-0.433 -0.119,-0.739 -0.357,-0.916 -0.238,-0.178 -0.68,-0.266 -1.324,-0.266 h -0.23 v 2.256 z"
   id="path31"
   inkscape:connector-curvature="0" />
		<path
   d="m 130.162,14.925 h 3.115 c 0,0.054 0.002,0.129 0.005,0.226 0.011,0.254 0.017,0.426 0.017,0.516 0,1.106 -0.317,1.966 -0.951,2.578 -0.634,0.612 -1.527,0.918 -2.68,0.918 -0.645,0 -1.22,-0.095 -1.725,-0.285 -0.505,-0.19 -0.947,-0.476 -1.326,-0.859 -0.373,-0.379 -0.658,-0.825 -0.857,-1.337 -0.199,-0.512 -0.298,-1.06 -0.298,-1.644 0,-0.594 0.101,-1.142 0.304,-1.644 0.202,-0.501 0.502,-0.943 0.899,-1.327 0.384,-0.376 0.833,-0.663 1.349,-0.859 0.516,-0.196 1.066,-0.295 1.654,-0.295 0.619,0 1.174,0.113 1.662,0.338 0.488,0.225 0.924,0.571 1.308,1.037 l -0.935,0.704 c -0.266,-0.308 -0.564,-0.537 -0.896,-0.688 -0.334,-0.15 -0.706,-0.226 -1.117,-0.226 -0.853,0 -1.549,0.273 -2.088,0.819 -0.538,0.546 -0.808,1.256 -0.808,2.13 0,0.888 0.27,1.608 0.808,2.162 0.539,0.553 1.238,0.83 2.098,0.83 0.73,0 1.306,-0.17 1.725,-0.51 0.419,-0.34 0.629,-0.804 0.629,-1.391 v -0.113 h -1.891 v -1.08 z"
   id="path33"
   inkscape:connector-curvature="0" />
	</g>
	<g
   id="g35">
		<path
   d="m 105.521,52.623 0.026,0.047 c -0.004,-0.008 -0.008,-0.016 -0.013,-0.024 -0.005,-0.008 -0.009,-0.016 -0.013,-0.023 z"
   id="path37"
   inkscape:connector-curvature="0" />
		<path
   d="M 132,-0.001 H 12 c -6.627,0 -12.001,5.373 -12,12 v 120 c 0,6.628 5.372,12 11.999,12 L 131.998,144 C 138.627,143.997 144,138.626 144,131.999 v -120 C 144,5.372 138.627,0 132,-0.001 z m 8,132 c 0,4.41 -3.591,7.999 -8.002,8.001 L 11.999,139.999 c -4.059,0 -7.414,-3.042 -7.924,-6.965 l 48,-27.712 c 11.674,6.957 26.663,7.568 39.268,0.29 11.902,-6.87 18.771,-19.099 19.345,-31.88 L 94.814,82.897 93.355,80.37 c -0.324,-0.565 -1.043,-0.758 -1.605,-0.433 -0.564,0.324 -0.754,1.044 -0.432,1.605 l 1.462,2.528 -11.966,6.908 -20.929,-36.246 11.966,-6.909 1.461,2.534 c 0.324,0.563 1.043,0.756 1.605,0.43 0.563,-0.324 0.754,-1.043 0.43,-1.605 L 73.885,46.649 89.656,37.543 C 78.335,31.747 64.402,31.622 52.568,38.455 39.962,45.732 32.997,59.018 33.186,72.607 L 4,89.458 V 11.999 C 4,9.863 4.832,7.854 6.343,6.343 7.854,4.832 9.863,3.999 12,3.999 h 120 c 4.411,0 8,3.589 8,8 v 120 z"
   id="path39"
   inkscape:connector-curvature="0" />
	</g>
	<path
   d="m 110.482,27.98 -8.426,4.865 3.83,6.634 c 0.324,0.563 0.133,1.281 -0.432,1.605 -0.561,0.324 -1.279,0.133 -1.605,-0.43 l -3.829,-6.635 -8.425,4.864 v 21.811 l 18.887,10.903 7.777,-4.491 -10.113,-5.839 c -0.559,-0.324 -0.752,-1.043 -0.428,-1.605 0.324,-0.562 1.041,-0.754 1.605,-0.43 l 10,5.773 V 53.46 c 0,-0.65 0.527,-1.176 1.176,-1.176 0.648,-0.002 1.176,0.526 1.178,1.176 l -0.002,11.676 7.693,-4.441 V 38.886 L 110.482,27.98 z"
   id="path41"
   inkscape:connector-curvature="0" />
</g>
</svg>
