<?xml version="1.0" encoding="UTF-8"?>
<svg width="144px" height="144px" viewBox="0 0 144 144" version="1.1" xmlns="http://www.w3.org/2000/svg" xmlns:xlink="http://www.w3.org/1999/xlink">
    <!-- Generator: Sketch 42 (36781) - http://www.bohemiancoding.com/sketch -->
    <title>knoxdevs</title>
    <desc>Created with Sketch.</desc>
    <defs></defs>
    <g id="KnoxDevs" stroke="none" stroke-width="1" fill="none" fill-rule="evenodd">
        <g id="knoxdevs">
            <rect id="Rectangle" fill="#ED523F" x="0" y="0" width="144" height="144" rx="23"></rect>
            <g id="cocoahead" transform="translate(16.000000, 8.000000)" stroke="#FFFFFF" stroke-width="4" stroke-linecap="round">
                <path d="M33.2204352,41.2629691 C33.2204352,41.2629691 36.4483605,40.835835 37.5541106,40.7201165 C38.815351,40.5881256 40.4759956,40.4197029 40.4759956,40.4197029 C40.4759956,40.4197029 43.9736116,40.2202177 45.9045024,40.2202177 C47.9458879,40.2202177 52.3482119,40.2839898 52.3482119,40.2839898 C52.3482119,40.2839898 54.0637775,40.3741058 55.0348416,40.4197029 C56.1963774,40.4742437 58.7906244,40.7201165 58.7906244,40.7201165" id="Path-4"></path>
                <path d="M17.3329724,62.3686912 L18.1214793,66.7715947 L18.77926,71.5855904 L19.2191639,76.3792071 L19.4394616,81.9489801 L19.4394616,88.2717195 L19.153455,93.3116402 L18.7360305,97.884251 L18.1415378,102.813844 L17.8126474,104.872468 L19.1510341,105.874901 L22.553718,107.211477 C22.553718,107.211477 27.0793326,108.280667 27.0793326,108.280669 C27.0793326,108.28067 32.4121292,109.37305 32.4121292,109.37305 L37.4392065,110.064528 L41.5473966,110.416592 L46.8373095,110.52727 L58.3529685,110.52727 L62.5804722,110.326643 L67.037957,109.792223 L72.0470508,108.85409 L77.4455563,107.517513 L82.3180447,106.042148 L86.6665911,104.502836 L88.207292,103.384806 L87.2182001,98.899684 L86.4061763,92.7621118 L85.7508164,86.7475159 L85.0930356,79.9054651 L84.8959089,73.4463977 L84.8755046,67.2856357 L85.1359194,59.0219787" id="Path-8"></path>
                <path d="M65.074644,44.3519584 C65.074644,44.3519584 61.956239,45.2105312 60.5163486,46.2887587 C59.0764582,47.3669862 58.3073181,48.6173043 58.3073181,50.9624624 C58.3073181,53.3076205 61.9793549,55.6963104 63.1721982,56.2469303 C64.3650414,56.7975502 65.5620105,57.4969279 69.4816367,57.8969211 C73.4012628,58.2969143 71.8124252,58.1995553 77.4026726,58.2953643 C82.99292,58.3911734 85.6009418,58.3694129 87.2866757,58.2953643 C88.9724095,58.2213158 90.5211912,57.9162442 91.7365521,57.6657256 C92.9519129,57.415207 93.8817302,56.935946 93.8817302,56.935946 C93.8817302,56.935946 97.6026216,55.4311619 97.8377957,52.5948848 C98.0729699,49.7586077 96.1598911,48.4104703 95.0278767,47.3669863 C93.8958622,46.3235023 93.8050589,46.294712 92.3690868,45.3596615 C90.9331146,44.4246109 90.5517,44.2161149 89.2019174,43.5733427 C87.8521348,42.9305704 87.6494569,42.8931759 86.1838035,42.414203 C84.7181502,41.9352302 82.3499779,41.3672282 78.4681944,41.2318736 C74.5864108,41.096519 72.2272315,41.1883049 72.2272315,41.1883049" id="Path-7"></path>
                <path d="M34.21947,83.7521642 L72.1078327,83.7521642 L71.7271521,85.759489 L70.869478,87.3915604 L68.8228184,90.0467947 L66.3590802,92.3239647 C66.3590802,92.3239647 63.5761343,94.2617204 63.576135,94.2617201 C63.5761357,94.2617198 60.4518494,95.4904292 60.4518494,95.4904292 L57.8587684,96.1819074 L55.8529175,96.5388901 L51.3854034,96.7419767 L47.4995861,96.7883563 L44.3348376,96.4310223 L41.0282962,95.2718827 L37.6889004,93.5987021 L35.3614217,91.2983423 L34.3291001,88.8620058 C34.3291001,88.8620058 33.8195096,87.8893401 33.7346074,87.3915605 C33.6213454,86.7275067 33.7346074,84.8835464 33.7346074,84.8835464 L34.21947,83.7521642 Z" id="Path-9" stroke-linejoin="round"></path>
                <path d="M11.041517,46.0708159 C11.041517,46.0708159 7.7245773,45.912001 5.17941823,47.2886328 C2.63425916,48.6652647 1.99839339,50.1969794 1.57407416,50.6971849 C0.513889273,51.9469757 0.704814499,53.1937401 0.704814499,54.6127511 C0.704814499,55.7888223 1.47215431,56.6964485 2.6342591,57.9117231 C3.79636388,59.1269976 5.10789909,59.7609339 5.97639809,60.1143597 C7.72426645,60.8256349 8.24782469,60.8664277 10.1049925,61.1835509 C11.9621603,61.5006742 10.9058428,61.3582197 14.0589396,61.4945053 C17.2120364,61.630791 20.3963908,61.6283738 20.3963908,61.6283738 C20.3963908,61.6283738 27.1378092,60.9826891 29.508833,59.6849967 C31.8798568,58.3873043 33.528489,56.7883774 33.528489,56.7883774 C33.528489,56.7883774 34.7786426,55.5833833 34.978928,53.8762983 C35.1792134,52.1692133 34.2748038,50.4273397 34.2748038,50.4273397 C34.2748038,50.4273397 33.1971965,48.9756141 31.603218,47.9238933 C30.0092395,46.8721725 27.6720961,46.0708159 27.6720961,46.0708159 L23.4321424,45.5799647 L19.521079,45.4900164" id="Path-10-Copy"></path>
                <path d="M21.3562596,0.450468097 C21.3562596,0.450468097 26.276955,2.95722433 26.5209798,8.26912651 C26.7650046,13.5810287 22.1838735,18.1876039 22.1193476,23.1127191 C22.0548216,28.0378342 26.2403336,30.4997306 26.2403336,30.4997306" id="Path-10-Copy-2"></path>
                <path d="M43.4012524,0.450468097 C43.4012524,0.450468097 48.3219478,2.95722433 48.5659725,8.26912651 C48.8099973,13.5810287 44.2288663,18.1876039 44.1643403,23.1127191 C44.0998143,28.0378342 48.2853263,30.4997306 48.2853263,30.4997306" id="Path-11"></path>
                <path d="M65.4462451,0.450468097 C65.4462451,0.450468097 70.3669405,2.95722433 70.6109653,8.26912651 C70.8549901,13.5810287 66.273859,18.1876039 66.209333,23.1127191 C66.1448071,28.0378342 70.3303191,30.4997306 70.3303191,30.4997306" id="Path-12"></path>
                <path d="M47.1938668,56.8243919 C47.1938668,56.8243919 45.5498542,59.0901075 44.7308203,62.3414608 C43.9117863,65.592814 42.8218036,71.521467 46.8099884,73.803556 C50.7981733,76.0856451 58.0047113,70.2876632 58.0047113,70.2876632" id="Path-10-Copy-3"></path>
                <path d="M95.6525533,78.8246236 C95.6525533,78.8246236 104.008579,75.6929232 107.349147,74.2797296 C110.689714,72.8665359 115.289557,70.1117103 116.737171,68.9782463 C120.116859,66.3319929 121.270477,61.666432 121.343452,58.9788128 C121.416426,56.2911936 121.325188,53.0610425 118.45074,49.2001015 C115.576292,45.3391604 111.045793,45.1458926 109.716913,45.1458926 C108.388033,45.1458926 104.532586,46.47114 104.532586,46.47114" id="Path-10"></path>
            </g>
            <text id="knoxcocoa.org" font-family="AvenirNext-DemiBold, Avenir Next" font-size="18" font-weight="500" fill="#FFFFFF">
                <tspan x="10" y="135">knoxcocoa.org</tspan>
            </text>
        </g>
    </g>
</svg>