<?xml version="1.0" encoding="UTF-8" standalone="no"?>
<svg width="500px" height="500px" viewBox="0 0 500 500" version="1.1" xmlns="http://www.w3.org/2000/svg" xmlns:xlink="http://www.w3.org/1999/xlink">
    <!-- Generator: Sketch 3.6.1 (26313) - http://www.bohemiancoding.com/sketch -->
    <title>profile</title>
    <desc>Created with Sketch.</desc>
    <defs></defs>
    <g id="github" stroke="none" stroke-width="1" fill="none" fill-rule="evenodd">
        <g id="profile">
            <rect id="background" fill="#116CD6" x="0" y="0" width="500" height="500"></rect>
            <g id="python-logo" transform="translate(22.000000, 23.000000)" fill="#FFFFFF">
                <g id="svg2169">
                    <g id="layer1" transform="translate(0.307709, 0.004366)">
                        <g id="g1894" transform="translate(0.180948, 0.013586)">
                            <path d="M225.861669,0.368737568 C110.489859,0.368745805 117.694419,50.4355646 117.694419,50.4355646 L117.823036,102.304283 L227.919547,102.304283 L227.919547,117.877769 L74.0931135,117.877769 C74.0931135,117.877769 0.26671467,109.499384 0.26671467,225.991226 C0.266706438,342.483043 64.7040419,338.351997 64.7040419,338.351997 L103.16065,338.351997 L103.16065,284.295268 C103.16065,284.295268 101.087741,219.813314 166.569038,219.813314 L275.765227,219.813314 C275.765227,219.813314 337.115736,220.805734 337.115736,160.479619 L337.115736,60.7320843 C337.115736,60.7320761 346.430436,0.368737568 225.861669,0.368737568 L225.861669,0.368737568 Z M165.154247,35.2481981 C176.108043,35.2481898 184.961329,44.107616 184.961329,55.0689985 C184.961337,66.030381 176.108043,74.8897989 165.154247,74.8897989 C154.20045,74.8898072 145.347164,66.030381 145.347164,55.0689985 C145.347156,44.107616 154.20045,35.2481981 165.154247,35.2481981 L165.154247,35.2481981 Z" id="path8615"></path>
                            <path d="M229.138223,452.781751 C344.510065,452.781751 337.305473,402.714924 337.305473,402.714924 L337.176855,350.846206 L227.080344,350.846206 L227.080344,335.27272 L380.906778,335.27272 C380.906778,335.27272 454.733177,343.65108 454.733177,227.159222 C454.733218,110.667417 390.29585,114.798463 390.29585,114.798463 L351.839241,114.798463 L351.839241,168.855179 C351.839241,168.855179 353.912184,233.337133 288.430853,233.337133 L179.234656,233.337133 C179.234656,233.337133 117.884147,232.344714 117.884147,292.670869 L117.884147,392.418404 C117.884147,392.418404 108.569447,452.781751 229.138223,452.781751 L229.138223,452.781751 Z M289.845645,417.90229 C278.891845,417.90229 270.038562,409.042876 270.038562,398.08149 C270.038562,387.120103 278.891845,378.260689 289.845645,378.260689 C300.799445,378.260689 309.652728,387.120103 309.652728,398.08149 C309.652769,409.042876 300.799445,417.90229 289.845645,417.90229 L289.845645,417.90229 Z" id="path8620"></path>
                        </g>
                    </g>
                </g>
            </g>
        </g>
    </g>
</svg>